<svg width="24" height="24" viewBox="0 0 24 24" fill="none" xmlns="http://www.w3.org/2000/svg">
<path fill-rule="evenodd" clip-rule="evenodd" d="M12 2C6.47715 2 2 6.47715 2 12C2 17.5228 6.47715 22 12 22C17.5228 22 22 17.5228 22 12C22 6.47715 17.5228 2 12 2ZM0 12C0 5.37258 5.37258 0 12 0C18.6274 0 24 5.37258 24 12C24 18.6274 18.6274 24 12 24C5.37258 24 0 18.6274 0 12ZM16.9023 6.84427C17.3564 7.15848 17.4699 7.78139 17.1557 8.23559L11.1602 16.9023C10.9771 17.1669 10.6778 17.3273 10.3561 17.3332C10.0343 17.339 9.72935 17.1897 9.53672 16.9318L6.86555 13.3565C6.535 12.914 6.62571 12.2874 7.06815 11.9568C7.5106 11.6263 8.13723 11.717 8.46778 12.1594L10.3066 14.6207L15.5109 7.09775C15.8251 6.64355 16.4481 6.53007 16.9023 6.84427Z" fill="#97FB57"/>
</svg>
